<svg id="Layer_1" data-name="Layer 1" xmlns="http://www.w3.org/2000/svg" viewBox="0 0 2358.79 551.65"><defs><style>.cls-1{fill:#d92729;}.cls-2{fill:#0c0f1b;}</style></defs><path class="cls-1" d="M290.22,27.57A30.58,30.58,0,0,1,296.35,46a30.55,30.55,0,0,1-9.57,23,32.51,32.51,0,0,1-23.36,9.19,41.76,41.76,0,0,1-9.18-1.53q-31.41-9.94-55.14-10T160,76.58q-24.51,14.55-24.5,54.36v35.23h85.77q13,0,23,9.57a31.22,31.22,0,0,1,10,23.36q0,13-10,22.59t-23,9.57H135.54V501.57A34,34,0,0,1,101.08,536a34,34,0,0,1-34.46-34.46V231.26H32.93a31.75,31.75,0,0,1-23.36-9.57A30.84,30.84,0,0,1,0,199.1a31.76,31.76,0,0,1,9.57-23.36,31.83,31.83,0,0,1,23.36-9.57H66.62V124.06q0-36,13.79-62a110.43,110.43,0,0,1,39.05-42.12Q153.15,0,196,0q37.5,0,78.87,15.32A35.59,35.59,0,0,1,290.22,27.57Z"/><path class="cls-1" d="M692.28,170a33.31,33.31,0,0,1,10,24.51V501.57a34.46,34.46,0,1,1-68.92,0V480.13a159.87,159.87,0,0,1-57.43,46.71,166.88,166.88,0,0,1-74.28,16.85q-45.94,0-84.23-22.59a169.34,169.34,0,0,1-60.88-60.88Q333.9,422,333.91,376V194.51a34.46,34.46,0,1,1,68.92,0v165.4a118.87,118.87,0,0,0,15.31,59.35,116,116,0,0,0,42.12,43.26,111.05,111.05,0,0,0,58.2,16.08,109.12,109.12,0,0,0,57.81-16.08A117.16,117.16,0,0,0,618,419.26a119,119,0,0,0,15.31-59.35V194.51a34.65,34.65,0,0,1,59-24.51Z"/><path class="cls-1" d="M967.62,162.72a34.75,34.75,0,0,1,1.53,47.86,33.43,33.43,0,0,1-21.82,11.49q-49,5.37-82.32,41.73T831.7,357.61v144a34.46,34.46,0,1,1-68.92,0V193.74a33.66,33.66,0,0,1,10-24.12,34.21,34.21,0,0,1,49,0,33.71,33.71,0,0,1,10,24.12v16.84A178.6,178.6,0,0,1,883,168.85q29.1-15.69,59-16.46Q957.27,152.39,967.62,162.72Z"/><path class="cls-1" d="M1323.35,175a169.78,169.78,0,0,1,60.88,60.87q22.57,38.31,22.59,84.24V501.57a34.46,34.46,0,1,1-68.92,0V336.17a119,119,0,0,0-15.31-59.35,117.21,117.21,0,0,0-41.73-43.26A109.15,109.15,0,0,0,1223,217.48a111.05,111.05,0,0,0-58.2,16.08,116.17,116.17,0,0,0-42.12,43.26,118.89,118.89,0,0,0-15.31,59.35v165.4a34.46,34.46,0,1,1-68.92,0V194.51a34.46,34.46,0,1,1,68.92,0v20.67a172.19,172.19,0,0,1,57.81-46q34.07-16.83,73.9-16.84Q1285.07,152.39,1323.35,175Z"/><path class="cls-2" d="M1557.34,517.27a198.33,198.33,0,0,1-71.22-71.21q-26.41-44.81-26.42-98.4,0-52.85,26.42-97.64a198.44,198.44,0,0,1,71.22-71.22q44.79-26.42,98.4-26.41,52.83,0,97.63,26.41A198.44,198.44,0,0,1,1824.59,250q26.42,44.8,26.42,97.64,0,53.61-26.42,98.4a198.33,198.33,0,0,1-71.22,71.21q-44.79,26.43-97.63,26.42Q1602.13,543.69,1557.34,517.27Zm162-56.28a128.18,128.18,0,0,0,45.94-47.48q16.85-29.86,16.85-65.85a130.27,130.27,0,0,0-16.85-65.09,128.26,128.26,0,0,0-45.94-47.48,123.51,123.51,0,0,0-127.12,0,131.18,131.18,0,0,0-46.33,47.48,128,128,0,0,0-17.23,65.09q0,36,17.23,65.85A131.1,131.1,0,0,0,1592.18,461a123.51,123.51,0,0,0,127.12,0Z"/><path class="cls-1" d="M2139,468.65a144.78,144.78,0,0,0,42.12-26,30.42,30.42,0,0,1,19.91-6.89,31.82,31.82,0,0,1,23.36,9.57,31,31,0,0,1,9.57,22.59,32,32,0,0,1-11.49,25.27A198.22,198.22,0,0,1,2162,529.91a192,192,0,0,1-69.69,13q-53.61,0-98.4-26.42a198.33,198.33,0,0,1-71.21-71.22q-26.43-44.81-26.43-97.63T1922.65,250a198.41,198.41,0,0,1,71.21-71.22q44.79-26.42,98.4-26.41a190.85,190.85,0,0,1,130.18,50.54q11.49,9.18,11.49,24.5A32.68,32.68,0,0,1,2201,260.36q-10.73,0-19.91-7.66a145.21,145.21,0,0,0-42.12-26,124.89,124.89,0,0,0-46.71-9.18,120.5,120.5,0,0,0-63.56,17.61,131.18,131.18,0,0,0-46.33,47.48,131.61,131.61,0,0,0,0,130.17,131.1,131.1,0,0,0,46.33,47.48,120.42,120.42,0,0,0,63.56,17.62A124.71,124.71,0,0,0,2139,468.65Z"/><path class="cls-2" d="M2286,532.59a43.46,43.46,0,0,1,0-60.49,40,40,0,0,1,29.87-12.64,42.89,42.89,0,0,1,0,85.77A40,40,0,0,1,2286,532.59Z"/></svg>